<?xml version="1.0" encoding="UTF-8" standalone="no"?>
<svg
   xmlns:dc="http://purl.org/dc/elements/1.1/"
   xmlns:cc="http://creativecommons.org/ns#"
   xmlns:rdf="http://www.w3.org/1999/02/22-rdf-syntax-ns#"
   xmlns:svg="http://www.w3.org/2000/svg"
   xmlns="http://www.w3.org/2000/svg"
   viewBox="0 0 211.10667 179.98666"
   height="179.98666"
   width="211.10667"
   xml:space="preserve"
   id="svg2"
   version="1.1"><metadata
     id="metadata8"><rdf:RDF><cc:Work
         rdf:about=""><dc:format>image/svg+xml</dc:format><dc:type
           rdf:resource="http://purl.org/dc/dcmitype/StillImage" /></cc:Work></rdf:RDF></metadata><defs
     id="defs6" /><g
     transform="matrix(1.3333333,0,0,-1.3333333,0,179.98667)"
     id="g10"><g
       transform="scale(0.1)"
       id="g12"><path
         id="path14"
         style="fill:#1f1a1a;fill-opacity:1;fill-rule:evenodd;stroke:none"
         d="m 1359.07,601.852 h -81.26 l -65,114.632 V 601.852 h -51.46 V 771.07 h 89.38 L 1307.6,653.703 V 771.07 h 51.47 z M 792.008,164.672 c -221.012,0 -410.66,128.258 -491.863,311.133 231.632,-17.414 498.66,-18.586 498.66,-18.586 187.91,-3.047 355.765,5.695 483.965,16.261 C 1200.97,291.859 1012.06,164.672 792.008,164.672 Z M 275.672,713.75 V 601.852 H 224.211 V 771.07 h 86.668 L 373.176,650.977 V 771.07 h 43.336 V 601.852 H 337.969 Z M 514.02,771.07 V 601.852 H 454.43 V 771.07 Z m 70.418,-106.449 c 0,0 -32.5,2.734 -37.918,43.672 v 8.191 c 0,0 -2.707,43.664 43.335,54.586 H 711.734 V 727.398 H 600.691 v -24.566 h 92.086 c 0,0 32.504,-10.914 32.504,-43.668 v -8.187 c 0,0 2.707,-35.477 -29.793,-49.125 H 549.227 v 40.933 h 127.3 v 21.836 z m 195.011,0 c 0,0 -32.5,2.734 -37.922,43.672 v 8.191 c 0,0 -2.707,43.664 43.34,54.586 H 906.746 V 727.398 H 795.699 v -24.566 h 92.09 c 0,0 32.5,-10.914 32.5,-43.668 v -8.187 c 0,0 2.711,-35.477 -29.793,-49.125 H 744.242 v 40.933 h 127.293 v 21.836 z m 368.361,-62.769 h -54.18 l -16.25,30.019 H 990.711 L 977.172,601.852 H 923 l 75.84,169.218 h 67.71 z M 792.008,1185.2 c 220.562,0 409.862,-127.75 491.342,-310.016 -387.897,32.691 -797.741,18.504 -978.248,9.375 83.73,177.221 270.168,300.641 486.906,300.641 z M 1580.81,793.945 c -0.85,50.121 -39.27,51.082 -39.27,51.082 -22.6,3.504 -45.52,6.766 -68.67,9.848 -82.47,285.355 -355.94,495.005 -680.862,495.005 -322.344,0 -594.067,-206.35 -678.84,-488.255 C 94.4102,857.969 77.1875,854.426 59.4883,850.695 9.57813,841.633 6.20703,806.477 6.20703,804.211 -5.12891,758.859 1.66016,608.039 6.20703,557.012 9.60547,502.582 53.832,507.109 56.0742,505.98 72.5664,502.426 91.0547,499.152 110.824,496.105 192.898,210.172 466.664,0 792.008,0 c 324.172,0 597.142,208.68 680.262,493.051 42.55,5.418 66.2,9.226 66.2,9.226 40.19,3.469 41.05,51.438 41.05,51.864 7.35,69.992 1.72,239.804 1.29,239.804" /><path
         id="path16"
         style="fill:#1f1a1a;fill-opacity:1;fill-rule:evenodd;stroke:none"
         d="m 1034.05,724.672 -24.38,-49.133 h 48.75 z" /></g></g></svg>